# xmcd
#
# Track frame offsets:
#	150
#	33088
#	48359
#	60398
#	73477
#	82221
#	95934
#	114953
#	137833
#	157617
#	176017
#	189262
#	206618
#	223805
#	244816
#	274346
#
# Disc length: 3881 seconds
#
# Revision: 1
# Processed by: cddbd v1.4PL0 Copyright (c) Steve Scherf et al.
# Submitted via: audiograbber 1.80
#
DISCID=ec0f2710
DTITLE=David Allan Coe - Live From The Iron Horse
DYEAR=1900
DGENRE=
TTITLE0=I'm An Ohio Boy
TTITLE1=Son Of The South
TTITLE2=59 Cadillac, 57 Chevrolet
TTITLE3=Wreckless
TTITLE4=Nothing To Lose
TTITLE5=When I Was A Young Man
TTITLE6=If That Ain't County - Part II
TTITLE7=Only God Knows Why
TTITLE8=Single Father
TTITLE9=Drank My Wife Away
TTITLE10=A Harley Someday
TTITLE11=Panheads Forever
TTITLE12=Take This Job And Shove IT
TTITLE13=The Ride
TTITLE14=You Never Even Called Me By My Name
TTITLE15=Amanda
EXTD=Recorded Live at the Iron Horse at Biketoberfest 2001 in Ormand Beach , Fl
EXTD=orida
EXTT0=
EXTT1=
EXTT2=Co-Written with Kid Rock
EXTT3=Co-Written With Kid Rock
EXTT4=
EXTT5=
EXTT6=
EXTT7=
EXTT8=
EXTT9=
EXTT10=
EXTT11=
EXTT12=
EXTT13=
EXTT14=
EXTT15=
PLAYORDER=
